<svg xmlns="http://www.w3.org/2000/svg" width="250" height="63" viewBox="0 0 250 63" fill="none">
    <path d="M0.46875 33.6506V24.6506L36.4688 8.79829V19.1534L11.821 29.0483L12.1534 28.5114V29.7898L11.821 29.2528L36.4688 39.1477V49.5028L0.46875 33.6506ZM110.354 20.9688H99.1555C98.951 19.5199 98.5334 18.233 97.9027 17.108C97.272 15.9659 96.4624 14.9943 95.4737 14.1932C94.4851 13.392 93.343 12.7784 92.0476 12.3523C90.7692 11.9261 89.38 11.7131 87.88 11.7131C85.1697 11.7131 82.8089 12.3864 80.7976 13.733C78.7862 15.0625 77.2266 17.0057 76.1186 19.5625C75.0107 22.1023 74.4567 25.1875 74.4567 28.8182C74.4567 32.5511 75.0107 35.6875 76.1186 38.2273C77.2436 40.767 78.8118 42.6847 80.8232 43.9801C82.8345 45.2756 85.1612 45.9233 87.8033 45.9233C89.2862 45.9233 90.6584 45.7273 91.9197 45.3352C93.1982 44.9432 94.3317 44.3722 95.3203 43.6222C96.309 42.8551 97.1271 41.9261 97.7749 40.8352C98.4396 39.7443 98.8999 38.5 99.1555 37.1023L110.354 37.1534C110.065 39.5568 109.34 41.875 108.181 44.108C107.039 46.3239 105.496 48.3097 103.553 50.0653C101.627 51.804 99.326 53.1847 96.6499 54.2074C93.9908 55.2131 90.9822 55.7159 87.6243 55.7159C82.9538 55.7159 78.7777 54.6591 75.0959 52.5455C71.4311 50.4318 68.5334 47.3722 66.4027 43.3665C64.2891 39.3608 63.2322 34.5114 63.2322 28.8182C63.2322 23.108 64.3061 18.25 66.4538 14.2443C68.6016 10.2386 71.5163 7.1875 75.1982 5.09091C78.88 2.97727 83.022 1.92045 87.6243 1.92045C90.6584 1.92045 93.4709 2.34659 96.0618 3.19886C98.6697 4.05114 100.979 5.29545 102.991 6.93181C105.002 8.55113 106.638 10.5369 107.9 12.8892C109.178 15.2415 109.996 17.9347 110.354 20.9688ZM116.299 11.7642V2.63636H159.305V11.7642H143.273V55H132.33V11.7642H116.299ZM205.653 0.181815L188.778 62.875H179.395L196.27 0.181815H205.653ZM249.023 38.5597L213.023 54.4119V44.0568L237.671 34.1619L237.339 34.6989V33.4205L237.671 33.9574L213.023 24.0625V13.7074L249.023 29.5597V38.5597Z" fill="white"/>
</svg>